<svg width="8" height="13" viewBox="0 0 8 13" fill="none" xmlns="http://www.w3.org/2000/svg">
<path d="M1.28145 13C1.44979 13.0002 1.6165 12.9681 1.77201 12.9057C1.92753 12.8433 2.06877 12.7518 2.18764 12.6363L7.62473 7.3699C7.86501 7.13714 8 6.8215 8 6.49237C8 6.16325 7.86501 5.8476 7.62473 5.61484L2.18764 0.348421C1.9459 0.122326 1.62213 -0.00278106 1.28607 4.69205e-05C0.950002 0.0028749 0.628528 0.133411 0.390886 0.36354C0.153243 0.593669 0.0184452 0.904978 0.0155249 1.23042C0.0126045 1.55586 0.141795 1.86939 0.375273 2.10348L4.90618 6.49237L0.375273 10.8813C0.196075 11.0549 0.0740462 11.276 0.024613 11.5167C-0.0248201 11.7575 0.000562307 12.007 0.0975507 12.2337C0.194539 12.4605 0.358779 12.6543 0.569508 12.7907C0.780237 12.9271 1.02799 12.9999 1.28145 13Z" fill="#FDFBFA"/>
</svg>
