<svg width="8" height="13" viewBox="0 0 8 13" fill="none" xmlns="http://www.w3.org/2000/svg">
<path d="M6.71855 13C6.55021 13.0002 6.3835 12.9681 6.22799 12.9057C6.07247 12.8433 5.93123 12.7518 5.81236 12.6363L0.375273 7.3699C0.134986 7.13714 0 6.8215 0 6.49237C0 6.16325 0.134986 5.8476 0.375273 5.61484L5.81236 0.348421C6.0541 0.122326 6.37787 -0.00278106 6.71393 4.69205e-05C7.05 0.0028749 7.37147 0.133411 7.60911 0.36354C7.84676 0.593669 7.98155 0.904978 7.98448 1.23042C7.9874 1.55586 7.8582 1.86939 7.62473 2.10348L3.09382 6.49237L7.62473 10.8813C7.80393 11.0549 7.92595 11.276 7.97539 11.5167C8.02482 11.7575 7.99944 12.007 7.90245 12.2337C7.80546 12.4605 7.64122 12.6543 7.43049 12.7907C7.21976 12.9271 6.97201 12.9999 6.71855 13Z" fill="#FDFBFA"/>
</svg>
