<svg width="30" height="30" viewBox="0 0 30 30" fill="none" xmlns="http://www.w3.org/2000/svg">
<path d="M19.6266 15.7072C20.0171 16.0977 20.6502 16.0977 21.0408 15.7072C21.4313 15.3167 21.4313 14.6835 21.0408 14.293L19.6266 15.7072ZM15.0003 9.66675L15.7074 8.95964C15.3169 8.56912 14.6837 8.56912 14.2932 8.95964L15.0003 9.66675ZM8.95989 14.293C8.56936 14.6835 8.56936 15.3167 8.95989 15.7072C9.35041 16.0977 9.98357 16.0977 10.3741 15.7072L8.95989 14.293ZM14.0003 20.3334C14.0003 20.8857 14.448 21.3334 15.0003 21.3334C15.5526 21.3334 16.0003 20.8857 16.0003 20.3334L14.0003 20.3334ZM27.3337 15.0001C27.3337 21.8116 21.8118 27.3334 15.0003 27.3334V29.3334C22.9164 29.3334 29.3337 22.9162 29.3337 15.0001H27.3337ZM15.0003 27.3334C8.18881 27.3334 2.66699 21.8116 2.66699 15.0001H0.666992C0.666992 22.9162 7.08424 29.3334 15.0003 29.3334V27.3334ZM2.66699 15.0001C2.66699 8.18857 8.18881 2.66675 15.0003 2.66675V0.666748C7.08424 0.666748 0.666992 7.084 0.666992 15.0001H2.66699ZM15.0003 2.66675C21.8118 2.66675 27.3337 8.18857 27.3337 15.0001H29.3337C29.3337 7.084 22.9164 0.666748 15.0003 0.666748V2.66675ZM21.0408 14.293L15.7074 8.95964L14.2932 10.3739L19.6266 15.7072L21.0408 14.293ZM14.2932 8.95964L8.95989 14.293L10.3741 15.7072L15.7074 10.3739L14.2932 8.95964ZM16.0003 20.3334L16.0003 9.66675L14.0003 9.66675L14.0003 20.3334L16.0003 20.3334Z" fill="#2F4858"/>
</svg>
