<svg width="25" height="15" viewBox="0 0 25 15" fill="none" xmlns="http://www.w3.org/2000/svg">
<path d="M6.76234 14.7017C6.95284 14.8927 7.21123 15 7.48065 15C7.75007 15 8.00845 14.8927 8.19896 14.7017C8.38947 14.5107 8.49649 14.2516 8.49649 13.9815C8.49649 13.7114 8.38947 13.4524 8.19896 13.2614L3.46816 8.51832L24.0018 8.51832C24.2681 8.51368 24.522 8.40435 24.7087 8.21389C24.8954 8.02342 25 7.76705 25 7.5C25 7.23295 24.8954 6.97658 24.7087 6.78612C24.522 6.59565 24.2681 6.48632 24.0018 6.48168L3.46816 6.48168L8.19896 1.73864C8.38947 1.54764 8.49649 1.28859 8.49649 1.01847C8.49649 0.748358 8.38947 0.489305 8.19896 0.298304C8.00845 0.107303 7.75007 0 7.48065 0C7.21123 0 6.95284 0.107303 6.76234 0.298304L0.297535 6.77983C0.107027 6.97083 0 7.22988 0 7.5C0 7.77012 0.107027 8.02917 0.297535 8.22017L6.76234 14.7017Z" fill="#2F4858"/>
</svg>
