<svg width="33" height="20" viewBox="0 0 33 20" fill="none" xmlns="http://www.w3.org/2000/svg">
<path d="M21.3613 9.79525V17.1286C21.3613 17.2599 21.3355 17.3899 21.2852 17.5113C21.235 17.6326 21.1613 17.7428 21.0684 17.8357C20.9756 17.9285 20.8653 18.0022 20.744 18.0525C20.6227 18.1027 20.4926 18.1286 20.3613 18.1286H2.36133C2.23001 18.1286 2.09997 18.1027 1.97864 18.0525C1.85732 18.0022 1.74708 17.9285 1.65422 17.8357C1.56136 17.7428 1.4877 17.6326 1.43745 17.5113C1.38719 17.3899 1.36133 17.2599 1.36133 17.1286V2.46191C1.36133 2.1967 1.46668 1.94234 1.65422 1.75481C1.84176 1.56727 2.09611 1.46191 2.36133 1.46191H20.3613C20.6265 1.46191 20.8809 1.56727 21.0684 1.75481C21.256 1.94234 21.3613 2.1967 21.3613 2.46191V9.79525ZM21.3613 9.79525L29.7213 2.82858C29.8674 2.70695 30.045 2.62945 30.2335 2.60516C30.422 2.58087 30.6135 2.61078 30.7856 2.69141C30.9577 2.77203 31.1032 2.90003 31.2052 3.0604C31.3072 3.22077 31.3613 3.40687 31.3613 3.59691V15.9936C31.361 16.1835 31.3066 16.3694 31.2045 16.5295C31.1024 16.6896 30.9569 16.8174 30.7848 16.8978C30.6128 16.9782 30.4214 17.008 30.2331 16.9836C30.0447 16.9593 29.8672 16.8818 29.7213 16.7602L21.3613 9.79525Z" stroke="#F97C60" stroke-width="2.5" stroke-linecap="round" stroke-linejoin="round"/>
</svg>
