<svg width="37" height="30" viewBox="0 0 37 30" fill="none" xmlns="http://www.w3.org/2000/svg">
<path d="M23.0365 17.5545L21.8987 17.0371L21.8987 17.0371L23.0365 17.5545ZM20.001 24.2301L21.1389 24.7475L21.1389 24.7475L20.001 24.2301ZM18.6768 24.7265L19.1942 23.5886L19.1942 23.5886L18.6768 24.7265ZM2.29127 17.2756L1.77385 18.4135L1.77385 18.4135L2.29127 17.2756ZM1.79489 15.9514L2.93278 16.4688L1.79489 15.9514ZM7.86594 2.60023L9.00382 3.11764L9.00383 3.11764L7.86594 2.60023ZM9.19018 2.10385L9.7076 0.965971L9.7076 0.965971L9.19018 2.10385ZM25.5757 9.55469L25.0583 10.6926L25.0583 10.6926L25.5757 9.55469ZM26.0721 10.8789L27.21 11.3963L27.21 11.3963L26.0721 10.8789ZM33.5305 14.6732L33.1998 13.4677L33.1995 13.4678L33.5305 14.6732ZM34.7053 16.0515L35.8432 16.5689L35.8432 16.5688L34.7053 16.0515ZM29.5739 27.3362L30.7109 27.8556L30.7118 27.8537L29.5739 27.3362ZM27.7636 27.3553L26.6378 27.8983L26.6378 27.8985L27.7636 27.3553ZM21.8987 17.0371L18.8631 23.7127L21.1389 24.7475L24.1744 18.0719L21.8987 17.0371ZM18.8631 23.7127C18.8767 23.6828 18.8961 23.6559 18.9201 23.6335L20.6266 25.4604C20.8425 25.2587 21.0166 25.0165 21.1389 24.7475L18.8631 23.7127ZM18.9201 23.6335C18.9441 23.611 18.9722 23.5936 19.003 23.5821L19.8804 25.923C20.1571 25.8193 20.4107 25.6621 20.6266 25.4604L18.9201 23.6335ZM19.003 23.5821C19.0337 23.5705 19.0664 23.5652 19.0992 23.5663L19.0141 26.0648C19.3094 26.0749 19.6038 26.0267 19.8804 25.923L19.003 23.5821ZM19.0992 23.5663C19.1321 23.5674 19.1643 23.575 19.1942 23.5886L18.1594 25.8643C18.4283 25.9866 18.7188 26.0548 19.0141 26.0648L19.0992 23.5663ZM19.1942 23.5886L2.80868 16.1377L1.77385 18.4135L18.1594 25.8643L19.1942 23.5886ZM2.80868 16.1377C2.83856 16.1513 2.86548 16.1707 2.8879 16.1947L1.06093 17.9012C1.26263 18.1171 1.50488 18.2912 1.77385 18.4135L2.80868 16.1377ZM2.8879 16.1947C2.91031 16.2187 2.92777 16.2468 2.9393 16.2776L0.598345 17.155C0.702052 17.4317 0.859238 17.6853 1.06093 17.9012L2.8879 16.1947ZM2.9393 16.2776C2.95082 16.3083 2.95617 16.341 2.95506 16.3738L0.456506 16.2887C0.44644 16.584 0.494636 16.8784 0.598345 17.155L2.9393 16.2776ZM2.95506 16.3738C2.95394 16.4067 2.94637 16.4389 2.93278 16.4688L0.657011 15.434C0.534705 15.7029 0.466572 15.9934 0.456506 16.2887L2.95506 16.3738ZM2.93278 16.4688L9.00382 3.11764L6.72806 2.08281L0.657011 15.434L2.93278 16.4688ZM9.00383 3.11764C8.97638 3.178 8.92608 3.22498 8.864 3.24826L7.98653 0.907305C7.42775 1.11675 6.97507 1.53959 6.72806 2.08281L9.00383 3.11764ZM8.864 3.24826C8.80191 3.27153 8.73312 3.26918 8.67276 3.24174L9.7076 0.965971C9.16439 0.71896 8.5453 0.697858 7.98653 0.907305L8.864 3.24826ZM8.67276 3.24174L25.0583 10.6926L26.0931 8.4168L9.7076 0.965971L8.67276 3.24174ZM25.0583 10.6926C24.9979 10.6651 24.9509 10.6148 24.9277 10.5527L27.2686 9.67527C27.0592 9.11649 26.6363 8.66381 26.0931 8.4168L25.0583 10.6926ZM24.9277 10.5527C24.9044 10.4906 24.9067 10.4219 24.9342 10.3615L27.21 11.3963C27.457 10.8531 27.4781 10.234 27.2686 9.67527L24.9277 10.5527ZM24.9342 10.3615L21.8987 17.0371L24.1744 18.0719L27.21 11.3963L24.9342 10.3615ZM23.3675 18.7599L33.8614 15.8786L33.1995 13.4678L22.7056 16.3491L23.3675 18.7599ZM33.8611 15.8787C33.8153 15.8912 33.7669 15.8905 33.7215 15.8765L34.4569 13.4871C34.0482 13.3613 33.6121 13.3546 33.1998 13.4677L33.8611 15.8787ZM33.7215 15.8765C33.676 15.8625 33.6355 15.8359 33.6047 15.7998L35.5073 14.178C35.2299 13.8526 34.8656 13.6129 34.4569 13.4871L33.7215 15.8765ZM33.6047 15.7998C33.5739 15.7636 33.554 15.7194 33.5474 15.6724L36.0231 15.3245C35.9636 14.9011 35.7847 14.5034 35.5073 14.178L33.6047 15.7998ZM33.5474 15.6724C33.5408 15.6253 33.5477 15.5774 33.5674 15.5341L35.8432 16.5688C36.0202 16.1796 36.0826 15.748 36.0231 15.3245L33.5474 15.6724ZM33.5674 15.5341L28.436 26.8188L30.7118 27.8537L35.8432 16.5689L33.5674 15.5341ZM28.4369 26.8169C28.4566 26.7737 28.4882 26.737 28.528 26.7111L29.8906 28.8072C30.2489 28.5743 30.5334 28.2442 30.7109 27.8556L28.4369 26.8169ZM28.528 26.7111C28.5679 26.6853 28.6142 26.6713 28.6617 26.6708L28.688 29.1706C29.1152 29.1661 29.5324 29.0401 29.8906 28.8072L28.528 26.7111ZM28.6617 26.6708C28.7091 26.6703 28.7558 26.6833 28.7961 26.7083L27.478 28.8326C27.841 29.0579 28.2607 29.1751 28.688 29.1706L28.6617 26.6708ZM28.7961 26.7083C28.8365 26.7334 28.8688 26.7694 28.8895 26.8121L26.6378 27.8985C26.8235 28.2833 27.1149 28.6073 27.478 28.8326L28.7961 26.7083ZM28.8895 26.8123L24.1624 17.0115L21.9107 18.0975L26.6378 27.8983L28.8895 26.8123Z" fill="#F97C60"/>
</svg>
