<svg width="33" height="21" viewBox="0 0 33 21" fill="none" xmlns="http://www.w3.org/2000/svg">
<path d="M10.8872 2.26158C11.0035 2.14536 11.0956 2.00739 11.1585 1.85554C11.2214 1.70369 11.2538 1.54094 11.2538 1.37658C11.2538 1.21222 11.2214 1.04947 11.1585 0.89762C11.0956 0.745771 11.0035 0.607799 10.8872 0.491579C10.771 0.375359 10.633 0.283168 10.4812 0.22027C10.3293 0.157373 10.1666 0.125 10.0022 0.125C9.83788 0.125 9.67512 0.157373 9.52328 0.22027C9.37143 0.283168 9.23346 0.375359 9.11724 0.491579L0.367235 9.24158C0.250827 9.35769 0.158469 9.49563 0.0954533 9.6475C0.0324371 9.79936 0 9.96216 0 10.1266C0 10.291 0.0324371 10.4538 0.0954533 10.6057C0.158469 10.7575 0.250827 10.8955 0.367235 11.0116L9.11724 19.7616C9.35195 19.9963 9.6703 20.1282 10.0022 20.1282C10.3342 20.1282 10.6525 19.9963 10.8872 19.7616C11.122 19.5269 11.2538 19.2085 11.2538 18.8766C11.2538 18.5446 11.122 18.2263 10.8872 17.9916L3.01973 10.1266L10.8872 2.26158V2.26158ZM21.6172 2.26158C21.3825 2.02686 21.2507 1.70852 21.2507 1.37658C21.2507 1.04464 21.3825 0.726295 21.6172 0.491579C21.852 0.256862 22.1703 0.125 22.5022 0.125C22.8342 0.125 23.1525 0.256862 23.3872 0.491579L32.1372 9.24158C32.2536 9.35769 32.346 9.49563 32.409 9.6475C32.472 9.79936 32.5045 9.96216 32.5045 10.1266C32.5045 10.291 32.472 10.4538 32.409 10.6057C32.346 10.7575 32.2536 10.8955 32.1372 11.0116L23.3872 19.7616C23.1525 19.9963 22.8342 20.1282 22.5022 20.1282C22.1703 20.1282 21.852 19.9963 21.6172 19.7616C21.3825 19.5269 21.2507 19.2085 21.2507 18.8766C21.2507 18.5446 21.3825 18.2263 21.6172 17.9916L29.4847 10.1266L21.6172 2.26158V2.26158Z" fill="#2F4858"/>
</svg>
