<svg width="31" height="25" viewBox="0 0 31 25" fill="none" xmlns="http://www.w3.org/2000/svg">
<path d="M7.00836 7.5775C7.06168 7.42202 7.08385 7.25757 7.07361 7.09353C7.06337 6.92949 7.02092 6.76907 6.94869 6.62144C6.87645 6.4738 6.77585 6.34184 6.65261 6.23309C6.52938 6.12433 6.38593 6.04091 6.23046 5.9876C6.07499 5.93428 5.91054 5.91211 5.7465 5.92235C5.58246 5.93259 5.42204 5.97504 5.2744 6.04727C5.12677 6.11951 4.9948 6.22011 4.88605 6.34335C4.7773 6.46658 4.69388 6.61003 4.64056 6.7655L0.626459 18.4707C0.572926 18.6262 0.55059 18.7907 0.560728 18.9548C0.570867 19.1189 0.613281 19.2794 0.685541 19.4271C0.757802 19.5747 0.858488 19.7067 0.981835 19.8154C1.10518 19.9242 1.24876 20.0075 1.40436 20.0606L13.1096 24.0747C13.4236 24.1824 13.7675 24.1609 14.0656 24.015C14.3638 23.8692 14.5918 23.6108 14.6995 23.2968C14.8071 22.9828 14.7857 22.6389 14.6398 22.3408C14.4939 22.0426 14.2356 21.8146 13.9216 21.7069L3.39801 18.0999L7.00836 7.5775ZM16.6465 2.86175C16.3326 2.75407 16.0742 2.52607 15.9283 2.22791C15.7824 1.92974 15.761 1.58584 15.8686 1.27185C15.9763 0.957862 16.2043 0.699507 16.5025 0.553623C16.8006 0.407738 17.1446 0.386273 17.4585 0.493951L29.1638 4.50806C29.3194 4.56119 29.4629 4.64451 29.5863 4.75322C29.7096 4.86194 29.8103 4.99392 29.8826 5.14161C29.9548 5.2893 29.9972 5.44979 30.0074 5.61389C30.0175 5.778 29.9952 5.94249 29.9417 6.09795L25.9275 17.8032C25.8199 18.1172 25.5919 18.3755 25.2937 18.5214C24.9955 18.6673 24.6516 18.6887 24.3377 18.5811C24.0237 18.4734 23.7653 18.2454 23.6194 17.9472C23.4735 17.6491 23.4521 17.3052 23.5598 16.9912L27.1701 6.46876L16.6465 2.86175Z" fill="#2F4858"/>
</svg>
