<svg width="32" height="30" viewBox="0 0 32 30" fill="none" xmlns="http://www.w3.org/2000/svg">
<path d="M13.1726 29.7456C16.1392 28.5789 15.4892 25.3622 13.9892 23.3289C12.5059 21.2456 10.4559 19.8122 8.38924 18.4289C6.91466 17.4995 5.59806 16.3405 4.48924 14.9956C4.02257 14.4456 3.07257 13.4289 4.03924 13.2289C5.02257 13.0289 6.72257 13.9956 7.58924 14.3622C9.10591 14.9956 10.6059 15.7289 12.0059 16.5956L13.6892 13.7622C11.0892 12.0456 7.75591 10.5289 4.65591 10.0789C2.88924 9.81224 1.02257 10.1789 0.422573 12.0956C-0.11076 13.7456 0.73924 15.4122 1.70591 16.7122C3.98924 19.7622 7.53924 21.2289 10.1892 23.8622C10.7559 24.4122 11.4392 25.0622 11.7726 25.8289C12.1226 26.5622 12.0392 26.6122 11.2559 26.6122C9.18924 26.6122 6.60591 24.9956 4.92257 23.9289L3.23924 26.7622C5.78924 28.3289 10.0559 30.7789 13.1726 29.7456V29.7456ZM31.6559 3.74558C32.0226 3.37891 32.0226 2.77891 31.6559 2.42891L29.4892 0.262245C29.3147 0.0940037 29.0817 0 28.8392 0C28.5968 0 28.3638 0.0940037 28.1892 0.262245L26.4892 1.96224L29.9559 5.42891L31.6559 3.74558ZM15.2559 13.1956V16.6622H18.7226L28.9726 6.41224L25.5059 2.94558L15.2559 13.1956Z" fill="#2F4858"/>
</svg>
