<svg width="25" height="25" viewBox="0 0 25 25" fill="none" xmlns="http://www.w3.org/2000/svg">
<path d="M12.1182 24.5241C8.83816 24.5241 8.4515 24.5067 7.1715 24.4507C6.17333 24.4179 5.18808 24.215 4.25816 23.8507C2.64925 23.2246 1.37702 21.9519 0.751497 20.3427C0.401239 19.4095 0.212321 18.4234 0.192831 17.4267C0.118164 16.1494 0.118164 15.7307 0.118164 12.4761C0.118164 9.18674 0.135497 8.80274 0.192831 7.52941C0.212748 6.5341 0.401659 5.54942 0.751497 4.61741C1.37634 3.00611 2.65063 1.7323 4.26216 1.10807C5.19369 0.756344 6.17863 0.566933 7.17416 0.548074C8.4475 0.476074 8.86616 0.476074 12.1182 0.476074C15.4248 0.476074 15.8048 0.493408 17.0648 0.548074C18.063 0.567096 19.0505 0.756487 19.9848 1.10807C21.5959 1.73301 22.8699 3.00658 23.4955 4.61741C23.8517 5.563 24.0416 6.56308 24.0568 7.57341C24.1315 8.85074 24.1315 9.26807 24.1315 12.5214C24.1315 15.7747 24.1128 16.2014 24.0568 17.4641C24.037 18.4617 23.8476 19.4486 23.4968 20.3827C22.8697 21.993 21.5956 23.2662 19.9848 23.8921C19.0518 24.2417 18.0663 24.4306 17.0702 24.4507C15.7968 24.5241 15.3795 24.5241 12.1182 24.5241ZM12.0728 2.58674C8.8115 2.58674 8.47283 2.60274 7.1995 2.66007C6.43948 2.67014 5.6868 2.8104 4.97416 3.07474C3.92183 3.47742 3.08913 4.30673 2.68216 5.35741C2.41578 6.07781 2.27551 6.83871 2.2675 7.60674C2.19683 8.89874 2.19683 9.23741 2.19683 12.4761C2.19683 15.6761 2.20883 16.0641 2.2675 17.3481C2.27943 18.1083 2.41963 18.8611 2.68216 19.5747C3.08973 20.6247 3.92229 21.4534 4.97416 21.8561C5.68632 22.1222 6.4393 22.2625 7.1995 22.2707C8.49016 22.3454 8.83017 22.3454 12.0728 22.3454C15.3435 22.3454 15.6822 22.3294 16.9448 22.2707C17.7054 22.2615 18.4586 22.1212 19.1715 21.8561C20.2175 21.4499 21.0447 20.6231 21.4515 19.5774C21.7174 18.8564 21.8576 18.0952 21.8662 17.3267H21.8808C21.9382 16.0521 21.9382 15.7121 21.9382 12.4547C21.9382 9.19741 21.9235 8.85474 21.8662 7.58141C21.8542 6.82201 21.714 6.07009 21.4515 5.35741C21.0457 4.31017 20.2183 3.4818 19.1715 3.07474C18.4588 2.80906 17.7054 2.66877 16.9448 2.66007C15.6555 2.58674 15.3182 2.58674 12.0728 2.58674ZM12.1182 18.6347C9.62482 18.6364 7.37606 17.1357 6.42065 14.8327C5.46524 12.5296 5.99137 9.87785 7.75367 8.11402C9.51597 6.3502 12.1673 5.82177 14.4712 6.77518C16.775 7.7286 18.2776 9.97606 18.2782 12.4694C18.2745 15.8708 15.5196 18.6281 12.1182 18.6347ZM12.1182 8.46674C9.90902 8.46674 8.11816 10.2576 8.11816 12.4667C8.11816 14.6759 9.90902 16.4667 12.1182 16.4667C14.3273 16.4667 16.1182 14.6759 16.1182 12.4667C16.113 10.2597 14.3252 8.47187 12.1182 8.46674ZM18.5182 7.51608C17.7254 7.51313 17.0847 6.86886 17.0862 6.07609C17.0876 5.28331 17.7307 4.64142 18.5235 4.64142C19.3163 4.64142 19.9594 5.2833 19.9608 6.07607C19.9612 6.45856 19.8092 6.82544 19.5385 7.09564C19.2678 7.36585 18.9006 7.51714 18.5182 7.51608Z" fill="#2F4858"/>
</svg>
