<svg width="33" height="33" viewBox="0 0 33 33" fill="none" xmlns="http://www.w3.org/2000/svg">
<path d="M16.1279 28.5546C12.8479 28.5546 12.4613 28.5373 11.1813 28.4813C10.1831 28.4484 9.19784 28.2455 8.26793 27.8813C6.65901 27.2551 5.38678 25.9824 4.76126 24.3733C4.411 23.44 4.22209 22.4539 4.2026 21.4573C4.12793 20.1799 4.12793 19.7613 4.12793 16.5066C4.12793 13.2173 4.14526 12.8333 4.2026 11.5599C4.22251 10.5646 4.41142 9.57994 4.76126 8.64793C5.3861 7.03663 6.6604 5.76282 8.27193 5.13859C9.20345 4.78686 10.1884 4.59745 11.1839 4.57859C12.4573 4.50659 12.8759 4.50659 16.1279 4.50659C19.4346 4.50659 19.8146 4.52393 21.0746 4.57859C22.0727 4.59761 23.0603 4.787 23.9946 5.13859C25.6057 5.76353 26.8797 7.03709 27.5053 8.64793C27.8614 9.59352 28.0513 10.5936 28.0666 11.6039C28.1413 12.8813 28.1413 13.2986 28.1413 16.5519C28.1413 19.8053 28.1226 20.2319 28.0666 21.4946C28.0467 22.4922 27.8574 23.4792 27.5066 24.4133C26.8795 26.0235 25.6053 27.2967 23.9946 27.9226C23.0616 28.2722 22.0761 28.4611 21.0799 28.4813C19.8066 28.5546 19.3893 28.5546 16.1279 28.5546ZM16.0826 6.61726C12.8213 6.61726 12.4826 6.63326 11.2093 6.69059C10.4492 6.70066 9.69657 6.84091 8.98393 7.10526C7.9316 7.50794 7.0989 8.33725 6.69193 9.38793C6.42555 10.1083 6.28527 10.8692 6.27726 11.6373C6.2066 12.9293 6.2066 13.2679 6.2066 16.5066C6.2066 19.7066 6.2186 20.0946 6.27726 21.3786C6.2892 22.1389 6.42939 22.8917 6.69193 23.6053C7.0995 24.6552 7.93206 25.4839 8.98393 25.8866C9.69608 26.1527 10.4491 26.293 11.2093 26.3013C12.4999 26.3759 12.8399 26.3759 16.0826 26.3759C19.3533 26.3759 19.6919 26.3599 20.9546 26.3013C21.7151 26.292 22.4684 26.1517 23.1813 25.8866C24.2272 25.4804 25.0545 24.6536 25.4613 23.6079C25.7271 22.8869 25.8674 22.1257 25.8759 21.3573H25.8906C25.9479 20.0826 25.9479 19.7426 25.9479 16.4853C25.9479 13.2279 25.9333 12.8853 25.8759 11.6119C25.864 10.8525 25.7238 10.1006 25.4613 9.38793C25.0554 8.34069 24.228 7.51232 23.1813 7.10526C22.4685 6.83958 21.7152 6.69929 20.9546 6.69059C19.6653 6.61726 19.3279 6.61726 16.0826 6.61726ZM16.1279 22.6653C13.6346 22.6669 11.3858 21.1662 10.4304 18.8632C9.475 16.5602 10.0011 13.9084 11.7634 12.1445C13.5257 10.3807 16.1771 9.85229 18.4809 10.8057C20.7848 11.7591 22.2874 14.0066 22.2879 16.4999C22.2843 19.9013 19.5293 22.6586 16.1279 22.6653ZM16.1279 12.4973C13.9188 12.4973 12.1279 14.2881 12.1279 16.4973C12.1279 18.7064 13.9188 20.4973 16.1279 20.4973C18.3371 20.4973 20.1279 18.7064 20.1279 16.4973C20.1228 14.2902 18.3349 12.5024 16.1279 12.4973ZM22.5279 11.5466C21.7352 11.5436 21.0945 10.8994 21.0959 10.1066C21.0974 9.31383 21.7405 8.67193 22.5333 8.67193C23.326 8.67193 23.9691 9.31382 23.9706 10.1066C23.971 10.4891 23.819 10.856 23.5483 11.1262C23.2776 11.3964 22.9104 11.5477 22.5279 11.5466Z" fill="#2E3A59"/>
</svg>
