<svg width="175" height="242" viewBox="0 0 175 242" fill="none" xmlns="http://www.w3.org/2000/svg">
<path d="M60.7305 113.149L48.1354 113.444C43.5496 113.382 39.1759 111.521 35.9732 108.27C32.7705 105.018 31.0002 100.642 31.0506 96.0995V76.856C31.0161 74.0247 32.1167 71.2955 34.111 69.2668C36.1053 67.238 38.8305 66.0755 41.6889 66.034C44.5957 66.0755 47.3674 67.2564 49.3968 69.318C51.4262 71.3797 52.5478 74.154 52.5159 77.0331V90.3934C52.5133 90.7179 52.6402 91.0302 52.869 91.2624C53.0979 91.4946 53.4101 91.6278 53.7377 91.633H57.2838C58.0741 91.633 58.832 91.322 59.3908 90.7685C59.9497 90.215 60.2637 89.4643 60.2637 88.6815V68.8772C60.2637 57.278 69.561 47.8432 80.974 47.8432C92.387 47.8432 101.645 57.2485 101.645 68.8772V130.701C101.645 131.483 101.959 132.234 102.517 132.787C103.076 133.341 103.834 133.652 104.625 133.652H109.224C109.75 133.652 110.256 133.445 110.628 133.076C111.001 132.707 111.21 132.206 111.21 131.684V114.202C111.17 110.902 112.455 107.721 114.781 105.358C117.107 102.995 120.285 101.643 123.616 101.599H123.686C127.018 101.643 130.196 102.995 132.522 105.358C134.848 107.721 136.132 110.902 136.092 114.202V137.046C136.099 138.422 135.956 139.794 135.665 141.139C135.525 141.689 135.552 142.268 135.742 142.803C135.931 143.338 136.276 143.806 136.732 144.149C137.188 144.492 137.736 144.694 138.308 144.731C138.879 144.768 139.449 144.637 139.946 144.356C145.293 141.247 150.174 137.412 154.449 132.963C168.116 118.796 174.967 100.189 175 77.1413C175 62.0167 171.689 48.3613 165.067 36.1751C158.445 23.9888 149.422 14.9377 138 9.02164C126.603 3.11872 109.965 0.1443 88.0861 0.098388L7.99613 0C3.73486 0 0.278144 4.05334 0.268211 9.07082L0 232.919C0 237.927 3.44676 242 7.69809 242H55.8435C60.0948 242 61.8033 238.153 61.8033 233.146" fill="#2F4858"/>
</svg>
