<svg width="657" height="388" viewBox="0 0 657 388" fill="none" xmlns="http://www.w3.org/2000/svg">
<path d="M196.351 188.382L188.812 188.561C186.067 188.523 183.449 187.398 181.532 185.433C179.615 183.468 178.555 180.823 178.586 178.078V166.448C178.565 164.737 179.224 163.088 180.417 161.862C181.611 160.636 183.242 159.933 184.953 159.908C186.693 159.933 188.352 160.647 189.567 161.893C190.782 163.139 191.453 164.815 191.434 166.555V174.63C191.432 174.826 191.508 175.014 191.645 175.155C191.782 175.295 191.969 175.376 192.165 175.379H194.288C194.761 175.379 195.214 175.191 195.549 174.856C195.883 174.522 196.071 174.068 196.071 173.595V161.626C196.071 154.616 201.636 148.914 208.468 148.914C215.299 148.914 220.84 154.598 220.84 161.626V198.989C220.84 199.462 221.028 199.916 221.363 200.251C221.697 200.585 222.151 200.773 222.624 200.773H225.377C225.692 200.773 225.995 200.648 226.218 200.425C226.441 200.202 226.566 199.899 226.566 199.584V189.018C226.542 187.024 227.311 185.102 228.703 183.674C230.095 182.246 231.997 181.428 233.992 181.402H234.033C236.028 181.428 237.93 182.246 239.322 183.674C240.714 185.102 241.483 187.024 241.459 189.018V202.824C241.463 203.656 241.378 204.485 241.204 205.298C241.12 205.63 241.136 205.98 241.249 206.303C241.363 206.627 241.569 206.91 241.842 207.117C242.115 207.324 242.443 207.447 242.785 207.469C243.127 207.491 243.468 207.412 243.766 207.242C246.966 205.363 249.888 203.045 252.447 200.357C260.628 191.795 264.728 180.55 264.748 166.621C264.748 157.48 262.766 149.227 258.802 141.863C254.839 134.498 249.438 129.028 242.601 125.452C235.779 121.885 225.821 120.087 212.725 120.059L164.786 120C162.236 120 160.166 122.45 160.161 125.482L160 260.766C160 263.792 162.063 266.254 164.608 266.254H193.426C195.97 266.254 196.993 263.929 196.993 260.903" fill="#FDFBFA"/>
<path d="M224.68 217.092H241.312V266.628H224.68V217.092Z" fill="#FDFBFA"/>
<path d="M256.456 217.092H273.16V237.324H278.344L287.92 217.092H304.552V220.332L293.176 241.644L306.208 263.388V266.628H288.712L278.056 246.972H273.16V266.628H256.456V217.092Z" fill="#FDFBFA"/>
<path d="M339.771 267.78C334.587 267.78 329.979 266.676 325.947 264.468C321.963 262.26 318.843 259.212 316.587 255.324C314.379 251.388 313.275 246.924 313.275 241.932C313.275 236.892 314.379 232.404 316.587 228.468C318.843 224.532 321.963 221.484 325.947 219.324C329.979 217.116 334.587 216.012 339.771 216.012C344.955 216.012 349.539 217.116 353.523 219.324C357.555 221.484 360.675 224.532 362.883 228.468C365.139 232.356 366.267 236.844 366.267 241.932C366.267 246.924 365.139 251.388 362.883 255.324C360.675 259.212 357.555 262.26 353.523 264.468C349.491 266.676 344.907 267.78 339.771 267.78ZM339.771 254.676C342.795 254.676 345.267 253.5 347.187 251.148C349.155 248.796 350.139 245.7 350.139 241.86C350.139 239.316 349.683 237.06 348.771 235.092C347.907 233.076 346.683 231.516 345.099 230.412C343.515 229.26 341.715 228.684 339.699 228.684C337.731 228.684 335.955 229.26 334.371 230.412C332.787 231.516 331.563 233.076 330.699 235.092C329.835 237.06 329.403 239.316 329.403 241.86C329.403 245.7 330.363 248.796 332.283 251.148C334.203 253.5 336.699 254.676 339.771 254.676Z" fill="#FDFBFA"/>
<path d="M402.977 267.78C397.793 267.78 393.185 266.676 389.153 264.468C385.169 262.26 382.049 259.212 379.793 255.324C377.585 251.388 376.481 246.924 376.481 241.932C376.481 236.892 377.585 232.404 379.793 228.468C382.049 224.532 385.169 221.484 389.153 219.324C393.185 217.116 397.793 216.012 402.977 216.012C408.161 216.012 412.745 217.116 416.729 219.324C420.761 221.484 423.881 224.532 426.089 228.468C428.345 232.356 429.473 236.844 429.473 241.932C429.473 246.924 428.345 251.388 426.089 255.324C423.881 259.212 420.761 262.26 416.729 264.468C412.697 266.676 408.113 267.78 402.977 267.78ZM402.977 254.676C406.001 254.676 408.473 253.5 410.393 251.148C412.361 248.796 413.345 245.7 413.345 241.86C413.345 239.316 412.889 237.06 411.977 235.092C411.113 233.076 409.889 231.516 408.305 230.412C406.721 229.26 404.921 228.684 402.905 228.684C400.937 228.684 399.161 229.26 397.577 230.412C395.993 231.516 394.769 233.076 393.905 235.092C393.041 237.06 392.609 239.316 392.609 241.86C392.609 245.7 393.569 248.796 395.489 251.148C397.409 253.5 399.905 254.676 402.977 254.676Z" fill="#FDFBFA"/>
<path d="M442.134 217.092H457.11L469.494 241.14L481.59 217.092H496.566V266.628H481.59V240.204L472.446 257.484H466.326L457.11 240.204V266.628H442.134V217.092Z" fill="#FDFBFA"/>
</svg>
